<svg width="146" height="146" viewBox="0 0 146 146" fill="none" xmlns="http://www.w3.org/2000/svg">
<path d="M6 43C6 44.6569 4.65685 46 3 46C1.34315 46 0 44.6569 0 43C0 41.3431 1.34315 40 3 40C4.65685 40 6 41.3431 6 43Z" fill="#D9D9D9"/>
<path d="M16 43C16 44.6569 14.6569 46 13 46C11.3431 46 10 44.6569 10 43C10 41.3431 11.3431 40 13 40C14.6569 40 16 41.3431 16 43Z" fill="#D9D9D9"/>
<path d="M26 43C26 44.6569 24.6569 46 23 46C21.3431 46 20 44.6569 20 43C20 41.3431 21.3431 40 23 40C24.6569 40 26 41.3431 26 43Z" fill="#D9D9D9"/>
<path d="M36 43C36 44.6569 34.6569 46 33 46C31.3431 46 30 44.6569 30 43C30 41.3431 31.3431 40 33 40C34.6569 40 36 41.3431 36 43Z" fill="#D9D9D9"/>
<path d="M46 43C46 44.6569 44.6569 46 43 46C41.3431 46 40 44.6569 40 43C40 41.3431 41.3431 40 43 40C44.6569 40 46 41.3431 46 43Z" fill="#D9D9D9"/>
<path d="M56 43C56 44.6569 54.6569 46 53 46C51.3431 46 50 44.6569 50 43C50 41.3431 51.3431 40 53 40C54.6569 40 56 41.3431 56 43Z" fill="#D9D9D9"/>
<path d="M66 43C66 44.6569 64.6569 46 63 46C61.3431 46 60 44.6569 60 43C60 41.3431 61.3431 40 63 40C64.6569 40 66 41.3431 66 43Z" fill="#D9D9D9"/>
<path d="M76 43C76 44.6569 74.6569 46 73 46C71.3431 46 70 44.6569 70 43C70 41.3431 71.3431 40 73 40C74.6569 40 76 41.3431 76 43Z" fill="#D9D9D9"/>
<path d="M86 43C86 44.6569 84.6569 46 83 46C81.3431 46 80 44.6569 80 43C80 41.3431 81.3431 40 83 40C84.6569 40 86 41.3431 86 43Z" fill="#D9D9D9"/>
<path d="M96 43C96 44.6569 94.6569 46 93 46C91.3431 46 90 44.6569 90 43C90 41.3431 91.3431 40 93 40C94.6569 40 96 41.3431 96 43Z" fill="#D9D9D9"/>
<path d="M6 33C6 34.6569 4.65685 36 3 36C1.34315 36 0 34.6569 0 33C0 31.3431 1.34315 30 3 30C4.65685 30 6 31.3431 6 33Z" fill="#D9D9D9"/>
<path d="M16 33C16 34.6569 14.6569 36 13 36C11.3431 36 10 34.6569 10 33C10 31.3431 11.3431 30 13 30C14.6569 30 16 31.3431 16 33Z" fill="#D9D9D9"/>
<path d="M26 33C26 34.6569 24.6569 36 23 36C21.3431 36 20 34.6569 20 33C20 31.3431 21.3431 30 23 30C24.6569 30 26 31.3431 26 33Z" fill="#D9D9D9"/>
<path d="M36 33C36 34.6569 34.6569 36 33 36C31.3431 36 30 34.6569 30 33C30 31.3431 31.3431 30 33 30C34.6569 30 36 31.3431 36 33Z" fill="#D9D9D9"/>
<path d="M46 33C46 34.6569 44.6569 36 43 36C41.3431 36 40 34.6569 40 33C40 31.3431 41.3431 30 43 30C44.6569 30 46 31.3431 46 33Z" fill="#D9D9D9"/>
<path d="M56 33C56 34.6569 54.6569 36 53 36C51.3431 36 50 34.6569 50 33C50 31.3431 51.3431 30 53 30C54.6569 30 56 31.3431 56 33Z" fill="#D9D9D9"/>
<path d="M66 33C66 34.6569 64.6569 36 63 36C61.3431 36 60 34.6569 60 33C60 31.3431 61.3431 30 63 30C64.6569 30 66 31.3431 66 33Z" fill="#D9D9D9"/>
<path d="M76 33C76 34.6569 74.6569 36 73 36C71.3431 36 70 34.6569 70 33C70 31.3431 71.3431 30 73 30C74.6569 30 76 31.3431 76 33Z" fill="#D9D9D9"/>
<path d="M86 33C86 34.6569 84.6569 36 83 36C81.3431 36 80 34.6569 80 33C80 31.3431 81.3431 30 83 30C84.6569 30 86 31.3431 86 33Z" fill="#D9D9D9"/>
<path d="M96 33C96 34.6569 94.6569 36 93 36C91.3431 36 90 34.6569 90 33C90 31.3431 91.3431 30 93 30C94.6569 30 96 31.3431 96 33Z" fill="#D9D9D9"/>
<path d="M6 23C6 24.6569 4.65685 26 3 26C1.34315 26 0 24.6569 0 23C0 21.3431 1.34315 20 3 20C4.65685 20 6 21.3431 6 23Z" fill="#D9D9D9"/>
<path d="M16 23C16 24.6569 14.6569 26 13 26C11.3431 26 10 24.6569 10 23C10 21.3431 11.3431 20 13 20C14.6569 20 16 21.3431 16 23Z" fill="#D9D9D9"/>
<path d="M26 23C26 24.6569 24.6569 26 23 26C21.3431 26 20 24.6569 20 23C20 21.3431 21.3431 20 23 20C24.6569 20 26 21.3431 26 23Z" fill="#D9D9D9"/>
<path d="M36 23C36 24.6569 34.6569 26 33 26C31.3431 26 30 24.6569 30 23C30 21.3431 31.3431 20 33 20C34.6569 20 36 21.3431 36 23Z" fill="#D9D9D9"/>
<path d="M46 23C46 24.6569 44.6569 26 43 26C41.3431 26 40 24.6569 40 23C40 21.3431 41.3431 20 43 20C44.6569 20 46 21.3431 46 23Z" fill="#D9D9D9"/>
<path d="M56 23C56 24.6569 54.6569 26 53 26C51.3431 26 50 24.6569 50 23C50 21.3431 51.3431 20 53 20C54.6569 20 56 21.3431 56 23Z" fill="#D9D9D9"/>
<path d="M66 23C66 24.6569 64.6569 26 63 26C61.3431 26 60 24.6569 60 23C60 21.3431 61.3431 20 63 20C64.6569 20 66 21.3431 66 23Z" fill="#D9D9D9"/>
<path d="M76 23C76 24.6569 74.6569 26 73 26C71.3431 26 70 24.6569 70 23C70 21.3431 71.3431 20 73 20C74.6569 20 76 21.3431 76 23Z" fill="#D9D9D9"/>
<path d="M86 23C86 24.6569 84.6569 26 83 26C81.3431 26 80 24.6569 80 23C80 21.3431 81.3431 20 83 20C84.6569 20 86 21.3431 86 23Z" fill="#D9D9D9"/>
<path d="M96 23C96 24.6569 94.6569 26 93 26C91.3431 26 90 24.6569 90 23C90 21.3431 91.3431 20 93 20C94.6569 20 96 21.3431 96 23Z" fill="#D9D9D9"/>
<path d="M6 13C6 14.6569 4.65685 16 3 16C1.34315 16 0 14.6569 0 13C0 11.3431 1.34315 10 3 10C4.65685 10 6 11.3431 6 13Z" fill="#D9D9D9"/>
<path d="M16 13C16 14.6569 14.6569 16 13 16C11.3431 16 10 14.6569 10 13C10 11.3431 11.3431 10 13 10C14.6569 10 16 11.3431 16 13Z" fill="#D9D9D9"/>
<path d="M26 13C26 14.6569 24.6569 16 23 16C21.3431 16 20 14.6569 20 13C20 11.3431 21.3431 10 23 10C24.6569 10 26 11.3431 26 13Z" fill="#D9D9D9"/>
<path d="M36 13C36 14.6569 34.6569 16 33 16C31.3431 16 30 14.6569 30 13C30 11.3431 31.3431 10 33 10C34.6569 10 36 11.3431 36 13Z" fill="#D9D9D9"/>
<path d="M46 13C46 14.6569 44.6569 16 43 16C41.3431 16 40 14.6569 40 13C40 11.3431 41.3431 10 43 10C44.6569 10 46 11.3431 46 13Z" fill="#D9D9D9"/>
<path d="M56 13C56 14.6569 54.6569 16 53 16C51.3431 16 50 14.6569 50 13C50 11.3431 51.3431 10 53 10C54.6569 10 56 11.3431 56 13Z" fill="#D9D9D9"/>
<path d="M66 13C66 14.6569 64.6569 16 63 16C61.3431 16 60 14.6569 60 13C60 11.3431 61.3431 10 63 10C64.6569 10 66 11.3431 66 13Z" fill="#D9D9D9"/>
<path d="M76 13C76 14.6569 74.6569 16 73 16C71.3431 16 70 14.6569 70 13C70 11.3431 71.3431 10 73 10C74.6569 10 76 11.3431 76 13Z" fill="#D9D9D9"/>
<path d="M86 13C86 14.6569 84.6569 16 83 16C81.3431 16 80 14.6569 80 13C80 11.3431 81.3431 10 83 10C84.6569 10 86 11.3431 86 13Z" fill="#D9D9D9"/>
<path d="M96 13C96 14.6569 94.6569 16 93 16C91.3431 16 90 14.6569 90 13C90 11.3431 91.3431 10 93 10C94.6569 10 96 11.3431 96 13Z" fill="#D9D9D9"/>
<path d="M6 3C6 4.65685 4.65685 6 3 6C1.34315 6 0 4.65685 0 3C0 1.34315 1.34315 0 3 0C4.65685 0 6 1.34315 6 3Z" fill="#D9D9D9"/>
<path d="M16 3C16 4.65685 14.6569 6 13 6C11.3431 6 10 4.65685 10 3C10 1.34315 11.3431 0 13 0C14.6569 0 16 1.34315 16 3Z" fill="#D9D9D9"/>
<path d="M26 3C26 4.65685 24.6569 6 23 6C21.3431 6 20 4.65685 20 3C20 1.34315 21.3431 0 23 0C24.6569 0 26 1.34315 26 3Z" fill="#D9D9D9"/>
<path d="M36 3C36 4.65685 34.6569 6 33 6C31.3431 6 30 4.65685 30 3C30 1.34315 31.3431 0 33 0C34.6569 0 36 1.34315 36 3Z" fill="#D9D9D9"/>
<path d="M46 3C46 4.65685 44.6569 6 43 6C41.3431 6 40 4.65685 40 3C40 1.34315 41.3431 0 43 0C44.6569 0 46 1.34315 46 3Z" fill="#D9D9D9"/>
<path d="M56 3C56 4.65685 54.6569 6 53 6C51.3431 6 50 4.65685 50 3C50 1.34315 51.3431 0 53 0C54.6569 0 56 1.34315 56 3Z" fill="#D9D9D9"/>
<path d="M66 3C66 4.65685 64.6569 6 63 6C61.3431 6 60 4.65685 60 3C60 1.34315 61.3431 0 63 0C64.6569 0 66 1.34315 66 3Z" fill="#D9D9D9"/>
<path d="M76 3C76 4.65685 74.6569 6 73 6C71.3431 6 70 4.65685 70 3C70 1.34315 71.3431 0 73 0C74.6569 0 76 1.34315 76 3Z" fill="#D9D9D9"/>
<path d="M86 3C86 4.65685 84.6569 6 83 6C81.3431 6 80 4.65685 80 3C80 1.34315 81.3431 0 83 0C84.6569 0 86 1.34315 86 3Z" fill="#D9D9D9"/>
<path d="M96 3C96 4.65685 94.6569 6 93 6C91.3431 6 90 4.65685 90 3C90 1.34315 91.3431 0 93 0C94.6569 0 96 1.34315 96 3Z" fill="#D9D9D9"/>
<path d="M106 123C106 124.657 104.657 126 103 126C101.343 126 100 124.657 100 123C100 121.343 101.343 120 103 120C104.657 120 106 121.343 106 123Z" fill="#D9D9D9"/>
<path d="M116 123C116 124.657 114.657 126 113 126C111.343 126 110 124.657 110 123C110 121.343 111.343 120 113 120C114.657 120 116 121.343 116 123Z" fill="#D9D9D9"/>
<path d="M126 123C126 124.657 124.657 126 123 126C121.343 126 120 124.657 120 123C120 121.343 121.343 120 123 120C124.657 120 126 121.343 126 123Z" fill="#D9D9D9"/>
<path d="M136 123C136 124.657 134.657 126 133 126C131.343 126 130 124.657 130 123C130 121.343 131.343 120 133 120C134.657 120 136 121.343 136 123Z" fill="#D9D9D9"/>
<path d="M146 123C146 124.657 144.657 126 143 126C141.343 126 140 124.657 140 123C140 121.343 141.343 120 143 120C144.657 120 146 121.343 146 123Z" fill="#D9D9D9"/>
<path d="M106 113C106 114.657 104.657 116 103 116C101.343 116 100 114.657 100 113C100 111.343 101.343 110 103 110C104.657 110 106 111.343 106 113Z" fill="#D9D9D9"/>
<path d="M116 113C116 114.657 114.657 116 113 116C111.343 116 110 114.657 110 113C110 111.343 111.343 110 113 110C114.657 110 116 111.343 116 113Z" fill="#D9D9D9"/>
<path d="M126 113C126 114.657 124.657 116 123 116C121.343 116 120 114.657 120 113C120 111.343 121.343 110 123 110C124.657 110 126 111.343 126 113Z" fill="#D9D9D9"/>
<path d="M136 113C136 114.657 134.657 116 133 116C131.343 116 130 114.657 130 113C130 111.343 131.343 110 133 110C134.657 110 136 111.343 136 113Z" fill="#D9D9D9"/>
<path d="M146 113C146 114.657 144.657 116 143 116C141.343 116 140 114.657 140 113C140 111.343 141.343 110 143 110C144.657 110 146 111.343 146 113Z" fill="#D9D9D9"/>
<path d="M106 103C106 104.657 104.657 106 103 106C101.343 106 100 104.657 100 103C100 101.343 101.343 100 103 100C104.657 100 106 101.343 106 103Z" fill="#D9D9D9"/>
<path d="M116 103C116 104.657 114.657 106 113 106C111.343 106 110 104.657 110 103C110 101.343 111.343 100 113 100C114.657 100 116 101.343 116 103Z" fill="#D9D9D9"/>
<path d="M126 103C126 104.657 124.657 106 123 106C121.343 106 120 104.657 120 103C120 101.343 121.343 100 123 100C124.657 100 126 101.343 126 103Z" fill="#D9D9D9"/>
<path d="M136 103C136 104.657 134.657 106 133 106C131.343 106 130 104.657 130 103C130 101.343 131.343 100 133 100C134.657 100 136 101.343 136 103Z" fill="#D9D9D9"/>
<path d="M146 103C146 104.657 144.657 106 143 106C141.343 106 140 104.657 140 103C140 101.343 141.343 100 143 100C144.657 100 146 101.343 146 103Z" fill="#D9D9D9"/>
<path d="M106 93C106 94.6569 104.657 96 103 96C101.343 96 100 94.6569 100 93C100 91.3431 101.343 90 103 90C104.657 90 106 91.3431 106 93Z" fill="#D9D9D9"/>
<path d="M116 93C116 94.6569 114.657 96 113 96C111.343 96 110 94.6569 110 93C110 91.3431 111.343 90 113 90C114.657 90 116 91.3431 116 93Z" fill="#D9D9D9"/>
<path d="M126 93C126 94.6569 124.657 96 123 96C121.343 96 120 94.6569 120 93C120 91.3431 121.343 90 123 90C124.657 90 126 91.3431 126 93Z" fill="#D9D9D9"/>
<path d="M136 93C136 94.6569 134.657 96 133 96C131.343 96 130 94.6569 130 93C130 91.3431 131.343 90 133 90C134.657 90 136 91.3431 136 93Z" fill="#D9D9D9"/>
<path d="M146 93C146 94.6569 144.657 96 143 96C141.343 96 140 94.6569 140 93C140 91.3431 141.343 90 143 90C144.657 90 146 91.3431 146 93Z" fill="#D9D9D9"/>
<path d="M106 83C106 84.6569 104.657 86 103 86C101.343 86 100 84.6569 100 83C100 81.3431 101.343 80 103 80C104.657 80 106 81.3431 106 83Z" fill="#D9D9D9"/>
<path d="M116 83C116 84.6569 114.657 86 113 86C111.343 86 110 84.6569 110 83C110 81.3431 111.343 80 113 80C114.657 80 116 81.3431 116 83Z" fill="#D9D9D9"/>
<path d="M126 83C126 84.6569 124.657 86 123 86C121.343 86 120 84.6569 120 83C120 81.3431 121.343 80 123 80C124.657 80 126 81.3431 126 83Z" fill="#D9D9D9"/>
<path d="M136 83C136 84.6569 134.657 86 133 86C131.343 86 130 84.6569 130 83C130 81.3431 131.343 80 133 80C134.657 80 136 81.3431 136 83Z" fill="#D9D9D9"/>
<path d="M146 83C146 84.6569 144.657 86 143 86C141.343 86 140 84.6569 140 83C140 81.3431 141.343 80 143 80C144.657 80 146 81.3431 146 83Z" fill="#D9D9D9"/>
<path d="M106 73C106 74.6569 104.657 76 103 76C101.343 76 100 74.6569 100 73C100 71.3431 101.343 70 103 70C104.657 70 106 71.3431 106 73Z" fill="#D9D9D9"/>
<path d="M116 73C116 74.6569 114.657 76 113 76C111.343 76 110 74.6569 110 73C110 71.3431 111.343 70 113 70C114.657 70 116 71.3431 116 73Z" fill="#D9D9D9"/>
<path d="M126 73C126 74.6569 124.657 76 123 76C121.343 76 120 74.6569 120 73C120 71.3431 121.343 70 123 70C124.657 70 126 71.3431 126 73Z" fill="#D9D9D9"/>
<path d="M136 73C136 74.6569 134.657 76 133 76C131.343 76 130 74.6569 130 73C130 71.3431 131.343 70 133 70C134.657 70 136 71.3431 136 73Z" fill="#D9D9D9"/>
<path d="M146 73C146 74.6569 144.657 76 143 76C141.343 76 140 74.6569 140 73C140 71.3431 141.343 70 143 70C144.657 70 146 71.3431 146 73Z" fill="#D9D9D9"/>
<path d="M106 63C106 64.6569 104.657 66 103 66C101.343 66 100 64.6569 100 63C100 61.3431 101.343 60 103 60C104.657 60 106 61.3431 106 63Z" fill="#D9D9D9"/>
<path d="M116 63C116 64.6569 114.657 66 113 66C111.343 66 110 64.6569 110 63C110 61.3431 111.343 60 113 60C114.657 60 116 61.3431 116 63Z" fill="#D9D9D9"/>
<path d="M126 63C126 64.6569 124.657 66 123 66C121.343 66 120 64.6569 120 63C120 61.3431 121.343 60 123 60C124.657 60 126 61.3431 126 63Z" fill="#D9D9D9"/>
<path d="M136 63C136 64.6569 134.657 66 133 66C131.343 66 130 64.6569 130 63C130 61.3431 131.343 60 133 60C134.657 60 136 61.3431 136 63Z" fill="#D9D9D9"/>
<path d="M146 63C146 64.6569 144.657 66 143 66C141.343 66 140 64.6569 140 63C140 61.3431 141.343 60 143 60C144.657 60 146 61.3431 146 63Z" fill="#D9D9D9"/>
<path d="M106 53C106 54.6569 104.657 56 103 56C101.343 56 100 54.6569 100 53C100 51.3431 101.343 50 103 50C104.657 50 106 51.3431 106 53Z" fill="#D9D9D9"/>
<path d="M116 53C116 54.6569 114.657 56 113 56C111.343 56 110 54.6569 110 53C110 51.3431 111.343 50 113 50C114.657 50 116 51.3431 116 53Z" fill="#D9D9D9"/>
<path d="M126 53C126 54.6569 124.657 56 123 56C121.343 56 120 54.6569 120 53C120 51.3431 121.343 50 123 50C124.657 50 126 51.3431 126 53Z" fill="#D9D9D9"/>
<path d="M136 53C136 54.6569 134.657 56 133 56C131.343 56 130 54.6569 130 53C130 51.3431 131.343 50 133 50C134.657 50 136 51.3431 136 53Z" fill="#D9D9D9"/>
<path d="M146 53C146 54.6569 144.657 56 143 56C141.343 56 140 54.6569 140 53C140 51.3431 141.343 50 143 50C144.657 50 146 51.3431 146 53Z" fill="#D9D9D9"/>
<path d="M106 43C106 44.6569 104.657 46 103 46C101.343 46 100 44.6569 100 43C100 41.3431 101.343 40 103 40C104.657 40 106 41.3431 106 43Z" fill="#D9D9D9"/>
<path d="M116 43C116 44.6569 114.657 46 113 46C111.343 46 110 44.6569 110 43C110 41.3431 111.343 40 113 40C114.657 40 116 41.3431 116 43Z" fill="#D9D9D9"/>
<path d="M126 43C126 44.6569 124.657 46 123 46C121.343 46 120 44.6569 120 43C120 41.3431 121.343 40 123 40C124.657 40 126 41.3431 126 43Z" fill="#D9D9D9"/>
<path d="M136 43C136 44.6569 134.657 46 133 46C131.343 46 130 44.6569 130 43C130 41.3431 131.343 40 133 40C134.657 40 136 41.3431 136 43Z" fill="#D9D9D9"/>
<path d="M146 43C146 44.6569 144.657 46 143 46C141.343 46 140 44.6569 140 43C140 41.3431 141.343 40 143 40C144.657 40 146 41.3431 146 43Z" fill="#D9D9D9"/>
<path d="M106 33C106 34.6569 104.657 36 103 36C101.343 36 100 34.6569 100 33C100 31.3431 101.343 30 103 30C104.657 30 106 31.3431 106 33Z" fill="#D9D9D9"/>
<path d="M116 33C116 34.6569 114.657 36 113 36C111.343 36 110 34.6569 110 33C110 31.3431 111.343 30 113 30C114.657 30 116 31.3431 116 33Z" fill="#D9D9D9"/>
<path d="M126 33C126 34.6569 124.657 36 123 36C121.343 36 120 34.6569 120 33C120 31.3431 121.343 30 123 30C124.657 30 126 31.3431 126 33Z" fill="#D9D9D9"/>
<path d="M136 33C136 34.6569 134.657 36 133 36C131.343 36 130 34.6569 130 33C130 31.3431 131.343 30 133 30C134.657 30 136 31.3431 136 33Z" fill="#D9D9D9"/>
<path d="M146 33C146 34.6569 144.657 36 143 36C141.343 36 140 34.6569 140 33C140 31.3431 141.343 30 143 30C144.657 30 146 31.3431 146 33Z" fill="#D9D9D9"/>
<path d="M106 23C106 24.6569 104.657 26 103 26C101.343 26 100 24.6569 100 23C100 21.3431 101.343 20 103 20C104.657 20 106 21.3431 106 23Z" fill="#D9D9D9"/>
<path d="M116 23C116 24.6569 114.657 26 113 26C111.343 26 110 24.6569 110 23C110 21.3431 111.343 20 113 20C114.657 20 116 21.3431 116 23Z" fill="#D9D9D9"/>
<path d="M126 23C126 24.6569 124.657 26 123 26C121.343 26 120 24.6569 120 23C120 21.3431 121.343 20 123 20C124.657 20 126 21.3431 126 23Z" fill="#D9D9D9"/>
<path d="M136 23C136 24.6569 134.657 26 133 26C131.343 26 130 24.6569 130 23C130 21.3431 131.343 20 133 20C134.657 20 136 21.3431 136 23Z" fill="#D9D9D9"/>
<path d="M146 23C146 24.6569 144.657 26 143 26C141.343 26 140 24.6569 140 23C140 21.3431 141.343 20 143 20C144.657 20 146 21.3431 146 23Z" fill="#D9D9D9"/>
<path d="M106 13C106 14.6569 104.657 16 103 16C101.343 16 100 14.6569 100 13C100 11.3431 101.343 10 103 10C104.657 10 106 11.3431 106 13Z" fill="#D9D9D9"/>
<path d="M116 13C116 14.6569 114.657 16 113 16C111.343 16 110 14.6569 110 13C110 11.3431 111.343 10 113 10C114.657 10 116 11.3431 116 13Z" fill="#D9D9D9"/>
<path d="M126 13C126 14.6569 124.657 16 123 16C121.343 16 120 14.6569 120 13C120 11.3431 121.343 10 123 10C124.657 10 126 11.3431 126 13Z" fill="#D9D9D9"/>
<path d="M136 13C136 14.6569 134.657 16 133 16C131.343 16 130 14.6569 130 13C130 11.3431 131.343 10 133 10C134.657 10 136 11.3431 136 13Z" fill="#D9D9D9"/>
<path d="M146 13C146 14.6569 144.657 16 143 16C141.343 16 140 14.6569 140 13C140 11.3431 141.343 10 143 10C144.657 10 146 11.3431 146 13Z" fill="#D9D9D9"/>
<path d="M106 3C106 4.65685 104.657 6 103 6C101.343 6 100 4.65685 100 3C100 1.34315 101.343 0 103 0C104.657 0 106 1.34315 106 3Z" fill="#D9D9D9"/>
<path d="M116 3C116 4.65685 114.657 6 113 6C111.343 6 110 4.65685 110 3C110 1.34315 111.343 0 113 0C114.657 0 116 1.34315 116 3Z" fill="#D9D9D9"/>
<path d="M126 3C126 4.65685 124.657 6 123 6C121.343 6 120 4.65685 120 3C120 1.34315 121.343 0 123 0C124.657 0 126 1.34315 126 3Z" fill="#D9D9D9"/>
<path d="M136 3C136 4.65685 134.657 6 133 6C131.343 6 130 4.65685 130 3C130 1.34315 131.343 0 133 0C134.657 0 136 1.34315 136 3Z" fill="#D9D9D9"/>
<path d="M146 3C146 4.65685 144.657 6 143 6C141.343 6 140 4.65685 140 3C140 1.34315 141.343 0 143 0C144.657 0 146 1.34315 146 3Z" fill="#D9D9D9"/>
</svg>
